<svg version="1.1" id="Layer_1" xmlns="http://www.w3.org/2000/svg" xmlns:xlink="http://www.w3.org/1999/xlink" x="0px" y="0px"
	 width="100%" viewBox="0 0 648 398" enable-background="new 0 0 648 398" xml:space="preserve">
<path fill="#FEFEFF" opacity="1.000000" stroke="none" 
	d="
M416.000000,399.000000 
	C277.366333,399.000000 139.232666,399.000000 1.049499,399.000000 
	C1.049499,266.398041 1.049499,133.796051 1.049499,1.097027 
	C216.883682,1.097027 432.767426,1.097027 648.825562,1.097027 
	C648.825562,133.666489 648.825562,266.333221 648.825562,399.000000 
	C571.462646,399.000000 493.981323,399.000000 416.000000,399.000000 
M208.933929,178.982391 
	C212.541748,178.982391 216.149551,178.982391 220.110489,178.982391 
	C220.110489,170.950073 220.110489,163.494598 220.861557,155.725647 
	C230.217194,155.725647 239.572845,155.725647 248.832611,155.725647 
	C248.832611,151.139999 248.832611,147.781143 248.832611,144.113586 
	C240.611908,144.113586 232.835983,144.179489 225.062805,144.061737 
	C223.371140,144.036118 221.689423,143.353104 220.156113,142.057266 
	C220.202972,137.401718 220.249832,132.746155 220.870636,128.042786 
	C221.239929,127.939812 221.609207,127.836838 222.906723,127.897446 
	C232.798538,127.897446 242.690338,127.897446 252.615646,127.897446 
	C252.615646,123.630775 252.615646,119.941467 252.615646,116.011856 
	C237.804581,116.011856 223.391418,115.998497 208.978500,116.052658 
	C208.282944,116.055267 207.589615,116.652344 206.684280,117.895607 
	C206.745712,137.937546 206.807129,157.979477 206.948090,178.598740 
	C207.303391,178.688705 207.658707,178.778671 208.933929,178.982391 
M193.877701,127.106743 
	C194.584579,126.439468 195.843719,125.816490 195.901428,125.097130 
	C196.134827,122.187416 195.998306,119.248039 195.998306,116.407188 
	C179.582916,116.407188 163.875916,116.407188 148.264465,116.407188 
	C148.264465,137.424515 148.264465,158.011185 148.264465,178.714371 
	C164.273041,178.714371 179.992401,178.714371 195.756927,178.714371 
	C195.756927,175.007370 195.756927,171.613327 195.756927,168.040833 
	C184.629898,168.040833 173.840363,168.040833 162.357758,167.523911 
	C162.583694,162.348282 162.809631,157.172638 163.952667,152.167709 
	C172.980225,152.167709 182.007797,152.167709 191.259766,152.167709 
	C191.259766,149.217911 191.499374,147.031586 191.155624,144.941193 
	C190.991211,143.941345 189.720749,143.123383 188.320755,142.093918 
	C187.896301,142.138428 187.471832,142.182953 186.113205,142.062408 
	C178.186844,142.062408 170.260498,142.062408 162.259888,142.062408 
	C162.259888,136.649399 162.259888,131.879913 162.667358,127.106705 
	C162.667358,127.106705 163.039856,126.941498 163.957535,127.103371 
	C173.643387,127.053757 183.329239,127.004143 193.877701,127.106743 
M332.918121,59.037014 
	C397.143341,59.049892 461.368591,59.068073 525.593811,59.069260 
	C534.076904,59.069416 542.560059,58.982872 551.557983,59.616802 
	C551.680908,61.768551 551.909912,63.920242 551.911072,66.072052 
	C551.932251,104.898804 551.912659,143.725571 551.929138,182.552322 
	C551.947510,225.710464 551.993408,268.868622 551.141418,312.389343 
	C549.145020,312.446686 547.148682,312.553925 545.152283,312.554199 
	C475.659241,312.563599 406.166199,312.560028 336.673157,312.577789 
	C334.593414,312.578308 332.513733,312.786530 330.463562,312.896362 
	C330.463562,319.761810 330.463562,326.018097 330.463562,332.838104 
	C332.739532,332.838104 334.693329,332.838165 336.647125,332.838104 
	C412.306244,332.835693 487.965332,332.835968 563.624451,332.814606 
	C565.441895,332.814087 567.259216,332.571594 569.864868,332.642975 
	C570.586853,331.153290 571.939087,329.664276 571.940674,328.173798 
	C572.040894,233.351501 572.036011,138.529068 571.988281,43.706684 
	C571.987488,42.209442 571.337708,40.712528 570.071899,39.035156 
	C490.278534,39.035156 410.485199,39.035156 330.215393,39.035156 
	C330.215393,45.450874 330.160797,51.237061 330.293274,57.018959 
	C330.307739,57.650215 331.399445,58.256794 332.918121,59.037014 
M325.001556,127.029335 
	C325.001556,127.029335 325.031769,127.025833 325.958527,127.124939 
	C336.694550,127.124939 347.430542,127.124939 358.102997,127.124939 
	C358.102997,123.005486 358.102997,119.641815 358.102997,116.302032 
	C342.083099,116.302032 326.504364,116.302032 310.771759,116.302032 
	C310.771759,137.314392 310.771759,158.014084 310.771759,179.002777 
	C326.098480,179.002777 341.066193,179.033539 356.032776,178.917892 
	C356.835999,178.911697 357.629730,177.674866 358.677307,176.159821 
	C358.595367,174.102600 358.513458,172.045395 358.607330,169.190430 
	C357.520416,168.745941 356.435760,167.922455 355.346252,167.916031 
	C345.238403,167.856186 335.129730,167.937088 324.559448,167.283524 
	C324.726410,162.219208 324.893341,157.154907 325.982330,152.191299 
	C335.188751,152.191299 344.395172,152.191299 353.604675,152.191299 
	C353.604675,148.442245 353.604675,145.403488 353.604675,142.126785 
	C343.825958,142.126785 334.407684,142.126785 324.567932,141.821838 
	C324.370331,141.540970 324.172729,141.260117 324.128998,140.071747 
	C324.426727,135.732101 324.724457,131.392456 325.001556,127.029335 
M459.936798,127.833076 
	C465.543243,127.833076 471.149658,127.833076 476.843140,127.833076 
	C476.843140,123.583839 476.843140,120.016151 476.843140,116.244034 
	C460.131439,116.244034 443.742554,116.244034 427.073669,116.244034 
	C427.073669,120.091736 427.073669,123.652817 427.073669,127.812286 
	C433.059418,127.812286 438.792633,127.812286 444.985474,127.812286 
	C444.985474,145.125458 444.985474,161.849075 444.985474,179.541489 
	C449.946136,178.964310 454.341278,178.452927 458.883911,177.022888 
	C458.925079,160.660797 458.966248,144.298706 459.936798,127.833076 
M475.781219,177.842270 
	C478.282684,177.900726 480.831238,177.673721 483.275726,178.077301 
	C488.290619,178.905228 490.599121,176.709366 491.148621,171.938614 
	C491.605499,167.972580 493.651001,166.278946 497.872986,166.746902 
	C501.656128,167.166245 505.522583,166.834015 509.352264,166.833618 
	C518.274231,166.832672 518.190063,166.860901 521.047607,175.399719 
	C521.515076,176.796524 523.000732,178.728622 524.179688,178.852402 
	C528.251892,179.279922 532.396606,179.017059 537.027710,179.017059 
	C531.427979,162.595245 526.048035,146.723267 520.593079,130.877106 
	C518.924194,126.029167 518.356201,119.420044 514.902405,116.956619 
	C511.432739,114.481934 504.972778,116.412720 499.865479,115.948578 
	C496.271301,115.621956 495.027191,117.189636 493.997223,120.307541 
	C488.419891,137.190796 482.611145,153.997467 476.937073,170.849030 
	C476.150970,173.183701 475.669800,175.621033 475.037109,178.152481 
	C475.037109,178.152481 474.860779,178.072296 474.860779,178.072296 
	C474.860779,178.072296 475.008362,178.030762 475.781219,177.842270 
M86.931419,178.981155 
	C90.496712,178.981155 94.062004,178.981155 98.097458,178.981155 
	C98.097458,171.266769 98.097458,164.366180 98.097458,157.120651 
	C101.711449,157.120651 104.847778,157.031876 107.977448,157.138565 
	C115.180145,157.384064 118.081703,159.656586 120.078674,166.636002 
	C120.899384,169.504364 121.132645,172.602631 122.344131,175.273834 
	C123.054237,176.839539 125.124481,178.725845 126.653557,178.790268 
	C129.982483,178.930481 133.356644,177.996582 137.269363,177.419540 
	C134.520477,166.603088 134.847702,154.123932 119.715851,151.123657 
	C120.997330,150.383194 122.027954,150.107574 123.054459,149.817429 
	C131.882843,147.322067 135.879471,142.756424 136.013916,135.017639 
	C136.156235,126.824173 131.973373,120.881638 123.630798,118.507538 
	C119.216858,117.251434 114.525841,116.968971 109.042061,116.068352 
	C100.798393,116.068352 92.554718,116.068352 83.991119,116.068352 
	C83.991119,136.773239 83.972321,156.857590 84.076180,176.941330 
	C84.079514,177.585556 85.340126,178.223267 86.931419,178.981155 
M136.126633,195.017044 
	C132.216049,195.017044 128.305466,195.017044 124.825409,195.017044 
	C123.451401,199.915451 121.908951,203.837982 121.301941,207.900314 
	C119.960495,216.877792 111.917686,217.909927 102.514076,216.753281 
	C95.802925,215.927811 100.350502,209.714859 99.059357,206.165085 
	C99.005913,206.018127 99.052788,205.834702 99.052872,205.668259 
	C99.059174,194.158234 99.058899,194.155151 87.311966,195.228226 
	C87.024742,195.254471 86.762100,195.549850 85.984459,196.031708 
	C85.984459,215.655502 85.936653,235.586121 86.152412,255.513901 
	C86.161407,256.344879 88.609703,257.811127 89.958488,257.855347 
	C97.107452,258.089630 104.290924,258.309814 111.417046,257.842560 
	C116.315369,257.521454 121.294136,256.546509 125.963425,255.024612 
	C134.365845,252.285934 137.689377,246.163391 137.012405,236.197205 
	C136.634308,230.630859 131.461060,225.755310 124.169495,224.055206 
	C123.240761,223.838669 122.345177,223.479935 122.112541,223.405151 
	C125.713455,220.798935 130.471191,218.957062 132.509644,215.508041 
	C135.637009,210.216629 136.977463,203.845413 138.828217,197.855804 
	C139.039291,197.172760 137.660141,195.998322 136.126633,195.017044 
M485.803497,230.727966 
	C487.939423,237.194061 490.212097,243.618958 492.175720,250.136963 
	C494.484467,257.800720 494.552490,257.971893 502.815125,257.970306 
	C505.314911,257.969818 507.834808,257.770569 510.309662,258.019073 
	C513.749512,258.364410 515.244507,256.945557 516.323608,253.671997 
	C521.684631,237.407837 527.327820,221.236664 532.876709,205.034454 
	C533.930847,201.956299 535.007385,198.885788 536.346802,195.023926 
	C531.556641,195.023926 527.592407,194.843063 523.664917,195.143036 
	C522.598694,195.224472 521.189453,196.558487 520.708374,197.655579 
	C516.596680,207.031601 516.649841,207.054871 506.496735,207.054855 
	C504.163605,207.054840 501.778290,206.740463 499.507568,207.116913 
	C493.786682,208.065338 490.824158,205.940704 490.004761,200.112183 
	C489.751770,198.312607 488.180603,195.471710 486.881561,195.272888 
	C482.774689,194.644318 478.510895,195.040817 473.657898,195.040817 
	C477.851105,207.404678 481.681580,218.699005 485.803497,230.727966 
M184.488831,206.057663 
	C187.319504,206.055817 190.168030,205.850403 192.976974,206.096558 
	C198.075394,206.543335 196.879639,202.966690 197.068146,200.149460 
	C197.279312,196.993713 197.033569,194.830597 192.736069,194.912552 
	C179.419876,195.166489 166.095718,194.992447 152.774765,195.025925 
	C151.675003,195.028687 150.576035,195.344040 149.079956,195.575531 
	C149.079956,215.435898 149.078476,235.053345 149.081482,254.670807 
	C149.081955,257.745361 151.149719,257.983765 153.517014,257.979065 
	C166.671417,257.952911 179.828232,257.830963 192.979019,258.051727 
	C197.056305,258.120178 197.281677,255.981430 196.997437,253.054230 
	C196.739197,250.394836 198.394547,246.706314 193.138870,246.893005 
	C186.486816,247.129349 179.819641,246.981247 173.159393,246.936417 
	C161.824966,246.860123 163.280930,248.362228 162.909943,236.847473 
	C162.774841,232.653793 164.370605,231.791870 168.114212,231.918777 
	C175.099640,232.155533 182.099670,231.921661 189.092270,232.002167 
	C193.659225,232.054703 192.758957,228.813400 192.962387,226.074493 
	C193.175522,223.205032 192.335312,221.760574 189.109100,221.893906 
	C184.122284,222.099976 179.119080,222.024445 174.125473,221.929352 
	C161.506027,221.689072 163.116516,224.583008 162.992294,209.821350 
	C162.968536,206.997879 164.354355,206.011993 167.007370,206.043915 
	C172.501465,206.110031 177.996979,206.060028 184.488831,206.057663 
M326.878418,246.882034 
	C322.713226,243.854599 325.775208,239.553650 324.992950,235.918167 
	C324.342102,232.893311 325.976501,231.866714 328.972107,231.938522 
	C335.627594,232.098053 342.297729,231.787460 348.945892,232.059372 
	C352.788025,232.216522 354.258423,231.172272 354.135651,227.080276 
	C354.025452,223.408401 353.410339,221.507446 349.173035,221.867050 
	C344.875427,222.231766 340.522675,221.949188 336.194092,221.946594 
	C324.557098,221.939651 324.676453,221.940796 324.862244,210.262039 
	C324.914581,206.972031 325.974274,205.933044 329.204987,206.000641 
	C337.525543,206.174774 345.862061,205.816055 354.172333,206.156097 
	C358.451874,206.331192 359.231995,204.549133 359.024261,200.887253 
	C358.842072,197.674896 359.550903,194.759750 354.405548,194.896332 
	C341.428955,195.240753 328.435577,195.115204 315.452240,194.936020 
	C311.948364,194.887665 310.887207,195.998001 310.915344,199.479309 
	C311.060791,217.458450 311.052307,235.439896 310.919922,253.419235 
	C310.895050,256.800903 311.782501,258.097076 315.382843,258.043671 
	C328.199280,257.853363 341.021973,257.849487 353.838379,258.039795 
	C357.805481,258.098663 359.193146,256.695709 359.000183,252.808563 
	C358.823090,249.241867 358.372650,246.735138 353.775360,246.872955 
	C345.126099,247.132263 336.463287,246.941086 326.878418,246.882034 
M381.341217,177.341019 
	C389.780457,180.791275 398.514252,181.308823 407.141296,178.735260 
	C414.141876,176.646881 419.539032,172.436996 420.452850,164.332016 
	C420.716400,161.994492 421.398834,159.704178 422.047485,156.646088 
	C418.135284,155.722366 414.422974,154.845840 410.409302,153.898178 
	C410.167664,155.367233 410.060516,156.160782 409.904572,156.944641 
	C408.461731,164.195206 405.356812,167.731537 399.534760,168.771103 
	C392.823151,169.969467 385.899872,167.224609 382.928436,161.340820 
	C378.311157,152.197968 378.408325,142.673019 382.793518,133.477509 
	C385.393311,128.025818 391.405670,125.308670 396.939178,126.181862 
	C402.476135,127.055611 405.527863,130.298782 407.106354,136.914627 
	C407.201630,137.313934 407.638611,137.631729 407.984131,138.073853 
	C409.026550,137.814087 410.095612,137.771362 410.921692,137.301437 
	C413.837891,135.642517 419.791107,138.008423 419.411377,132.334824 
	C419.177765,128.844650 416.599060,125.425964 414.731171,122.171555 
	C413.953033,120.815758 412.380890,119.825340 411.005829,118.917046 
	C401.674591,112.753387 385.219238,113.552109 376.711456,120.858315 
	C364.773987,131.109833 363.654388,144.485397 366.577484,158.745651 
	C368.275269,167.028046 372.899475,173.283127 381.341217,177.341019 
M373.995087,250.483597 
	C381.310974,258.106567 390.569458,260.033722 400.515015,258.806152 
	C411.357574,257.467865 418.671082,250.383133 419.304413,241.312668 
	C419.374481,240.309769 418.646515,238.544800 417.915680,238.313934 
	C414.658295,237.285049 411.265350,236.685287 407.966888,235.940720 
	C407.519501,236.792480 407.219391,237.196960 407.081818,237.650742 
	C404.929016,244.751160 402.094513,247.583099 395.950348,247.886185 
	C389.903015,248.184509 384.598480,245.559860 382.849396,239.905136 
	C380.988251,233.888275 379.917816,227.193909 380.461212,220.966309 
	C381.305237,211.293243 387.424957,205.688721 395.412659,205.041748 
	C402.716400,204.450150 406.423706,207.685196 410.156616,217.399948 
	C410.553284,218.432281 412.424927,219.291672 413.722565,219.482880 
	C415.292450,219.714218 417.208740,219.560562 418.553406,218.813965 
	C419.960999,218.032425 421.924469,216.255920 421.819733,215.076401 
	C421.217560,208.294693 419.265961,201.786850 412.964844,198.104553 
	C403.132080,192.358398 392.612732,192.329224 382.322235,196.525879 
	C378.501587,198.084000 374.873871,200.980988 372.111359,204.109177 
	C363.028717,214.394272 363.063995,238.719406 373.995087,250.483597 
M232.519379,229.970505 
	C236.347260,229.971588 240.186203,229.791183 244.000015,230.023300 
	C248.054626,230.270111 250.378204,229.782501 250.261230,224.567642 
	C250.154831,219.823746 248.680328,218.607651 244.233505,218.855850 
	C238.094772,219.198486 231.919601,218.827057 225.765839,218.986115 
	C222.402359,219.073059 220.825592,217.951828 221.013550,214.399216 
	C221.206726,210.748093 221.102661,207.077820 221.042175,203.417343 
	C220.885681,193.945526 222.670059,195.220551 212.547562,194.955154 
	C209.213852,194.867752 207.843094,195.712387 207.875305,199.360367 
	C208.035446,217.499725 208.014404,235.641785 207.882263,253.781616 
	C207.858109,257.098846 209.002289,258.071716 212.212418,258.030182 
	C223.694061,257.881714 235.178757,257.969086 246.662308,257.967865 
	C254.176651,257.967072 253.972061,257.964935 254.070938,250.357452 
	C254.118698,246.681473 252.688782,245.877869 249.376038,245.958252 
	C241.724792,246.143890 234.051392,245.733185 226.415680,246.124634 
	C221.811325,246.360672 220.854141,244.677185 220.954559,240.431610 
	C221.201797,229.976730 221.004166,229.972061 232.519379,229.970505 
M458.065369,240.350067 
	C458.066620,227.032349 457.719330,213.701508 458.220276,200.402618 
	C458.460541,194.024551 454.810059,195.127060 451.012604,194.947113 
	C446.968323,194.755463 444.651093,195.154449 444.810028,200.392868 
	C445.223755,214.030945 444.823517,227.691772 445.027191,241.339371 
	C445.083405,245.106537 443.910034,246.412354 440.191345,246.100006 
	C436.885620,245.822357 433.501251,245.771072 430.226990,246.198090 
	C429.017700,246.355804 427.544983,247.982422 427.058105,249.267151 
	C426.506104,250.723862 427.033936,252.557495 426.897614,254.211212 
	C426.667542,257.002075 427.798492,258.026367 430.625031,258.007050 
	C444.607880,257.911407 458.593231,257.848114 472.574463,258.027222 
	C477.277802,258.087463 477.035767,255.228882 476.964478,252.101715 
	C476.896973,249.142151 477.637299,245.767746 472.774963,246.013687 
	C469.454041,246.181656 466.098907,245.822937 462.793274,246.103165 
	C459.038666,246.421448 457.491852,245.026596 458.065369,240.350067 
M276.152039,131.503357 
	C276.152039,126.425423 276.152039,121.347496 276.152039,116.266724 
	C271.206512,116.266724 267.097931,116.266724 262.709229,116.266724 
	C262.709229,137.215759 262.709229,157.931702 262.709229,178.723175 
	C276.105865,178.723175 289.181274,178.723175 302.438446,178.723175 
	C302.438446,174.868759 302.438446,171.313004 302.438446,167.074432 
	C293.581024,167.074432 285.043823,167.074432 276.152039,167.074432 
	C276.152039,155.094376 276.152039,143.798111 276.152039,131.503357 
M276.646729,257.016144 
	C276.754944,242.209869 277.075745,227.400330 276.848816,212.599197 
	C276.775635,207.829010 278.339447,206.590393 282.788452,206.879532 
	C288.094147,207.224396 293.459381,206.674179 298.761627,207.044617 
	C303.761810,207.393967 303.092712,204.203323 302.978912,201.250824 
	C302.868042,198.374039 304.323608,194.745956 298.810150,194.912125 
	C288.496338,195.222931 278.159912,195.219193 267.846558,194.902115 
	C263.616943,194.772079 262.907898,196.419434 262.946167,200.112610 
	C263.104889,215.429184 263.010651,230.748398 263.009979,246.066635 
	C263.009399,258.970551 263.009827,258.970551 276.646729,257.016144 
z"/>
<path fill="#BDD2F0" opacity="1.000000" stroke="none" 
	d="
M136.572479,195.034393 
	C137.660141,195.998322 139.039291,197.172760 138.828217,197.855804 
	C136.977463,203.845413 135.637009,210.216629 132.509644,215.508041 
	C130.471191,218.957062 125.713455,220.798935 122.112541,223.405151 
	C122.345177,223.479935 123.240761,223.838669 124.169495,224.055206 
	C131.461060,225.755310 136.634308,230.630859 137.012405,236.197205 
	C137.689377,246.163391 134.365845,252.285934 125.963425,255.024612 
	C121.294136,256.546509 116.315369,257.521454 111.417046,257.842560 
	C104.290924,258.309814 97.107452,258.089630 89.958488,257.855347 
	C88.609703,257.811127 86.161407,256.344879 86.152412,255.513901 
	C85.936653,235.586121 85.984459,215.655502 85.984459,196.031708 
	C86.762100,195.549850 87.024742,195.254471 87.311966,195.228226 
	C99.058899,194.155151 99.059174,194.158234 99.052872,205.668259 
	C99.052788,205.834702 99.005913,206.018127 99.059357,206.165085 
	C100.350502,209.714859 95.802925,215.927811 102.514076,216.753281 
	C111.917686,217.909927 119.960495,216.877792 121.301941,207.900314 
	C121.908951,203.837982 123.451401,199.915451 124.825409,195.017044 
	C128.305466,195.017044 132.216049,195.017044 136.572479,195.034393 
M119.624977,229.795303 
	C113.521187,228.915771 107.428696,227.916763 101.296570,227.337097 
	C100.666862,227.277588 99.239487,229.686630 99.147652,231.016861 
	C98.862640,235.144821 99.124191,239.307144 99.012505,243.451782 
	C98.946404,245.905075 99.690056,247.173279 102.382828,247.067612 
	C106.027473,246.924637 109.690262,247.169342 113.328522,246.958633 
	C117.352249,246.725601 120.953888,245.256454 122.344055,241.131271 
	C123.650154,237.255585 123.880142,233.287476 119.624977,229.795303 
z"/>
<path fill="#5C5ECF" opacity="1.000000" stroke="none" 
	d="
M109.959908,116.246941 
	C114.525841,116.968971 119.216858,117.251434 123.630798,118.507538 
	C131.973373,120.881638 136.156235,126.824173 136.013916,135.017639 
	C135.879471,142.756424 131.882843,147.322067 123.054459,149.817429 
	C122.027954,150.107574 120.997330,150.383194 119.715851,151.123657 
	C134.847702,154.123932 134.520477,166.603088 137.269363,177.419540 
	C133.356644,177.996582 129.982483,178.930481 126.653557,178.790268 
	C125.124481,178.725845 123.054237,176.839539 122.344131,175.273834 
	C121.132645,172.602631 120.899384,169.504364 120.078674,166.636002 
	C118.081703,159.656586 115.180145,157.384064 107.977448,157.138565 
	C104.847778,157.031876 101.711449,157.120651 98.097458,157.120651 
	C98.097458,164.366180 98.097458,171.266769 98.097458,178.981155 
	C94.062004,178.981155 90.496712,178.981155 86.291916,178.554077 
	C85.439850,177.166458 85.043831,176.206299 85.041855,175.245316 
	C85.004471,157.097672 85.075905,138.949539 84.955666,120.802612 
	C84.934082,117.544960 86.361366,116.992165 89.174614,116.958405 
	C96.104897,116.875206 103.031700,116.502968 109.959908,116.246941 
M110.779213,146.627991 
	C111.431320,146.497467 112.083168,146.365662 112.735565,146.236618 
	C119.062233,144.985245 122.061958,141.758423 121.874138,136.405472 
	C121.677391,130.798508 118.175591,127.373444 111.713844,126.979889 
	C107.289192,126.710403 102.834854,126.928276 98.196106,126.928276 
	C98.196106,133.710312 98.196106,140.073425 98.196106,146.772934 
	C102.324959,146.772934 106.116356,146.772934 110.779213,146.627991 
z"/>
<path fill="#5D5FCF" opacity="1.000000" stroke="none" 
	d="
M475.047485,178.010834 
	C475.669800,175.621033 476.150970,173.183701 476.937073,170.849030 
	C482.611145,153.997467 488.419891,137.190796 493.997223,120.307541 
	C495.027191,117.189636 496.271301,115.621956 499.865479,115.948578 
	C504.972778,116.412720 511.432739,114.481934 514.902405,116.956619 
	C518.356201,119.420044 518.924194,126.029167 520.593079,130.877106 
	C526.048035,146.723267 531.427979,162.595245 537.027710,179.017059 
	C532.396606,179.017059 528.251892,179.279922 524.179688,178.852402 
	C523.000732,178.728622 521.515076,176.796524 521.047607,175.399719 
	C518.190063,166.860901 518.274231,166.832672 509.352264,166.833618 
	C505.522583,166.834015 501.656128,167.166245 497.872986,166.746902 
	C493.651001,166.278946 491.605499,167.972580 491.148621,171.938614 
	C490.599121,176.709366 488.290619,178.905228 483.275726,178.077301 
	C480.831238,177.673721 478.282684,177.900726 475.403259,177.925690 
	C475.025330,178.009125 475.047485,178.010834 475.047485,178.010834 
M502.174530,135.699356 
	C500.090973,142.653503 498.007385,149.607651 495.875366,156.723511 
	C502.513763,156.723511 508.665253,156.723511 515.302063,156.723511 
	C512.160950,146.454788 509.189697,136.741531 506.218445,127.028275 
	C505.822266,127.044296 505.426117,127.060310 505.029938,127.076324 
	C504.171112,129.700684 503.312256,132.325058 502.174530,135.699356 
z"/>
<path fill="#BED2F0" opacity="1.000000" stroke="none" 
	d="
M485.657776,230.360641 
	C481.681580,218.699005 477.851105,207.404678 473.657898,195.040817 
	C478.510895,195.040817 482.774689,194.644318 486.881561,195.272888 
	C488.180603,195.471710 489.751770,198.312607 490.004761,200.112183 
	C490.824158,205.940704 493.786682,208.065338 499.507568,207.116913 
	C501.778290,206.740463 504.163605,207.054840 506.496735,207.054855 
	C516.649841,207.054871 516.596680,207.031601 520.708374,197.655579 
	C521.189453,196.558487 522.598694,195.224472 523.664917,195.143036 
	C527.592407,194.843063 531.556641,195.023926 536.346802,195.023926 
	C535.007385,198.885788 533.930847,201.956299 532.876709,205.034454 
	C527.327820,221.236664 521.684631,237.407837 516.323608,253.671997 
	C515.244507,256.945557 513.749512,258.364410 510.309662,258.019073 
	C507.834808,257.770569 505.314911,257.969818 502.815125,257.970306 
	C494.552490,257.971893 494.484467,257.800720 492.175720,250.136963 
	C490.212097,243.618958 487.939423,237.194061 485.657776,230.360641 
M499.503540,231.056870 
	C501.135742,236.277252 502.767975,241.497635 504.400177,246.718033 
	C504.858734,246.672348 505.317291,246.626663 505.775848,246.580994 
	C508.657471,236.979340 511.539093,227.377701 514.576721,217.256317 
	C507.708282,217.256317 502.152283,217.256317 495.454712,217.256317 
	C496.808838,221.968689 498.006958,226.138275 499.503540,231.056870 
z"/>
<path fill="#BED2F1" opacity="1.000000" stroke="none" 
	d="
M183.990356,206.057724 
	C177.996979,206.060028 172.501465,206.110031 167.007370,206.043915 
	C164.354355,206.011993 162.968536,206.997879 162.992294,209.821350 
	C163.116516,224.583008 161.506027,221.689072 174.125473,221.929352 
	C179.119080,222.024445 184.122284,222.099976 189.109100,221.893906 
	C192.335312,221.760574 193.175522,223.205032 192.962387,226.074493 
	C192.758957,228.813400 193.659225,232.054703 189.092270,232.002167 
	C182.099670,231.921661 175.099640,232.155533 168.114212,231.918777 
	C164.370605,231.791870 162.774841,232.653793 162.909943,236.847473 
	C163.280930,248.362228 161.824966,246.860123 173.159393,246.936417 
	C179.819641,246.981247 186.486816,247.129349 193.138870,246.893005 
	C198.394547,246.706314 196.739197,250.394836 196.997437,253.054230 
	C197.281677,255.981430 197.056305,258.120178 192.979019,258.051727 
	C179.828232,257.830963 166.671417,257.952911 153.517014,257.979065 
	C151.149719,257.983765 149.081955,257.745361 149.081482,254.670807 
	C149.078476,235.053345 149.079956,215.435898 149.079956,195.575531 
	C150.576035,195.344040 151.675003,195.028687 152.774765,195.025925 
	C166.095718,194.992447 179.419876,195.166489 192.736069,194.912552 
	C197.033569,194.830597 197.279312,196.993713 197.068146,200.149460 
	C196.879639,202.966690 198.075394,206.543335 192.976974,206.096558 
	C190.168030,205.850403 187.319504,206.055817 183.990356,206.057724 
z"/>
<path fill="#BDD2F0" opacity="1.000000" stroke="none" 
	d="
M327.342285,246.909607 
	C336.463287,246.941086 345.126099,247.132263 353.775360,246.872955 
	C358.372650,246.735138 358.823090,249.241867 359.000183,252.808563 
	C359.193146,256.695709 357.805481,258.098663 353.838379,258.039795 
	C341.021973,257.849487 328.199280,257.853363 315.382843,258.043671 
	C311.782501,258.097076 310.895050,256.800903 310.919922,253.419235 
	C311.052307,235.439896 311.060791,217.458450 310.915344,199.479309 
	C310.887207,195.998001 311.948364,194.887665 315.452240,194.936020 
	C328.435577,195.115204 341.428955,195.240753 354.405548,194.896332 
	C359.550903,194.759750 358.842072,197.674896 359.024261,200.887253 
	C359.231995,204.549133 358.451874,206.331192 354.172333,206.156097 
	C345.862061,205.816055 337.525543,206.174774 329.204987,206.000641 
	C325.974274,205.933044 324.914581,206.972031 324.862244,210.262039 
	C324.676453,221.940796 324.557098,221.939651 336.194092,221.946594 
	C340.522675,221.949188 344.875427,222.231766 349.173035,221.867050 
	C353.410339,221.507446 354.025452,223.408401 354.135651,227.080276 
	C354.258423,231.172272 352.788025,232.216522 348.945892,232.059372 
	C342.297729,231.787460 335.627594,232.098053 328.972107,231.938522 
	C325.976501,231.866714 324.342102,232.893311 324.992950,235.918167 
	C325.775208,239.553650 322.713226,243.854599 327.342285,246.909607 
z"/>
<path fill="#5D5FCE" opacity="1.000000" stroke="none" 
	d="
M380.989258,177.186890 
	C372.899475,173.283127 368.275269,167.028046 366.577484,158.745651 
	C363.654388,144.485397 364.773987,131.109833 376.711456,120.858315 
	C385.219238,113.552109 401.674591,112.753387 411.005829,118.917046 
	C412.380890,119.825340 413.953033,120.815758 414.731171,122.171555 
	C416.599060,125.425964 419.177765,128.844650 419.411377,132.334824 
	C419.791107,138.008423 413.837891,135.642517 410.921692,137.301437 
	C410.095612,137.771362 409.026550,137.814087 407.984131,138.073853 
	C407.638611,137.631729 407.201630,137.313934 407.106354,136.914627 
	C405.527863,130.298782 402.476135,127.055611 396.939178,126.181862 
	C391.405670,125.308670 385.393311,128.025818 382.793518,133.477509 
	C378.408325,142.673019 378.311157,152.197968 382.928436,161.340820 
	C385.899872,167.224609 392.823151,169.969467 399.534760,168.771103 
	C405.356812,167.731537 408.461731,164.195206 409.904572,156.944641 
	C410.060516,156.160782 410.167664,155.367233 410.409302,153.898178 
	C414.422974,154.845840 418.135284,155.722366 422.047485,156.646088 
	C421.398834,159.704178 420.716400,161.994492 420.452850,164.332016 
	C419.539032,172.436996 414.141876,176.646881 407.141296,178.735260 
	C398.514252,181.308823 389.780457,180.791275 380.989258,177.186890 
z"/>
<path fill="#BDD2F0" opacity="1.000000" stroke="none" 
	d="
M373.740082,250.226105 
	C363.063995,238.719406 363.028717,214.394272 372.111359,204.109177 
	C374.873871,200.980988 378.501587,198.084000 382.322235,196.525879 
	C392.612732,192.329224 403.132080,192.358398 412.964844,198.104553 
	C419.265961,201.786850 421.217560,208.294693 421.819733,215.076401 
	C421.924469,216.255920 419.960999,218.032425 418.553406,218.813965 
	C417.208740,219.560562 415.292450,219.714218 413.722565,219.482880 
	C412.424927,219.291672 410.553284,218.432281 410.156616,217.399948 
	C406.423706,207.685196 402.716400,204.450150 395.412659,205.041748 
	C387.424957,205.688721 381.305237,211.293243 380.461212,220.966309 
	C379.917816,227.193909 380.988251,233.888275 382.849396,239.905136 
	C384.598480,245.559860 389.903015,248.184509 395.950348,247.886185 
	C402.094513,247.583099 404.929016,244.751160 407.081818,237.650742 
	C407.219391,237.196960 407.519501,236.792480 407.966888,235.940720 
	C411.265350,236.685287 414.658295,237.285049 417.915680,238.313934 
	C418.646515,238.544800 419.374481,240.309769 419.304413,241.312668 
	C418.671082,250.383133 411.357574,257.467865 400.515015,258.806152 
	C390.569458,260.033722 381.310974,258.106567 373.740082,250.226105 
z"/>
<path fill="#5A5CCF" opacity="1.000000" stroke="none" 
	d="
M325.060303,152.090591 
	C324.893341,157.154907 324.726410,162.219208 325.072540,167.937805 
	C331.321716,168.730408 337.061096,168.790558 342.792938,169.030151 
	C348.010040,169.248230 353.218994,169.661133 358.431519,169.988174 
	C358.513458,172.045395 358.595367,174.102600 358.184998,176.672485 
	C356.740723,177.455078 355.789703,177.956268 354.836700,177.960022 
	C341.679230,178.011871 328.520966,177.930832 315.364227,178.042023 
	C312.171417,178.069016 311.969910,176.328812 311.975616,173.906219 
	C312.016479,156.584732 312.044098,139.262848 311.947052,121.941818 
	C311.932251,119.297928 312.660431,117.725555 315.431580,117.732635 
	C319.185974,117.742218 322.943878,118.033730 326.693359,117.936813 
	C335.315216,117.713966 343.935730,117.389549 352.550903,116.982025 
	C356.188080,116.809982 356.992737,118.628342 357.084625,121.870071 
	C357.180878,125.266541 355.826965,126.150223 352.671844,126.058044 
	C346.348206,125.873299 340.012939,125.900139 333.687439,126.049889 
	C330.796143,126.118332 327.916626,126.685081 325.031769,127.025833 
	C325.031769,127.025833 325.001556,127.029335 324.615295,127.112106 
	C324.144379,131.789673 324.059753,136.384460 323.975128,140.979263 
	C324.172729,141.260117 324.370331,141.540970 324.854797,142.319397 
	C332.765900,142.882782 340.390137,142.950394 348.014404,143.013290 
	C350.374664,143.032761 353.103516,142.809219 352.852081,146.296356 
	C352.654541,149.036118 351.792480,151.297485 348.027100,151.082260 
	C342.577637,150.770767 337.094421,150.898254 331.631409,151.048843 
	C329.433136,151.109436 327.250214,151.726700 325.060303,152.090591 
z"/>
<path fill="#5A5CD1" opacity="1.000000" stroke="none" 
	d="
M187.047379,142.227463 
	C187.471832,142.182953 187.896301,142.138428 188.710236,142.537537 
	C191.071899,149.589188 190.055710,150.962112 183.147522,150.995102 
	C180.323410,151.008591 177.492432,150.875137 174.676682,151.029449 
	C170.790298,151.242432 166.915390,151.664505 163.035568,151.997009 
	C162.809631,157.172638 162.583694,162.348282 162.993652,168.075958 
	C171.770721,168.753159 179.911545,168.917725 188.053177,168.991760 
	C195.342529,169.058044 196.324234,170.409088 193.969986,178.004349 
	C180.301331,178.004349 166.501984,177.986664 152.702728,178.016052 
	C148.987640,178.023972 149.000122,175.533249 149.003235,172.886124 
	C149.022919,156.064789 149.116058,139.242310 148.939072,122.422798 
	C148.895493,118.282143 150.256180,116.787979 154.414444,116.957962 
	C166.523087,117.452934 178.645706,117.606857 190.754166,118.105247 
	C192.071396,118.159462 194.326630,119.495239 194.409729,120.396698 
	C194.577057,122.211868 193.547272,124.137383 192.541580,126.011497 
	C185.611923,126.003769 179.149857,125.901550 172.693130,126.042458 
	C169.470352,126.112778 166.257309,126.627686 163.039856,126.941498 
	C163.039856,126.941498 162.667358,127.106705 162.045563,127.140259 
	C161.068985,131.918701 160.539352,136.663239 160.530396,141.408768 
	C160.528900,142.206009 162.736893,143.608643 163.998093,143.699158 
	C168.566895,144.027115 173.179672,144.141449 177.751465,143.891037 
	C180.871109,143.720154 183.950165,142.808121 187.047379,142.227463 
z"/>
<path fill="#BDD2F0" opacity="1.000000" stroke="none" 
	d="
M232.023865,229.970459 
	C221.004166,229.972061 221.201797,229.976730 220.954559,240.431610 
	C220.854141,244.677185 221.811325,246.360672 226.415680,246.124634 
	C234.051392,245.733185 241.724792,246.143890 249.376038,245.958252 
	C252.688782,245.877869 254.118698,246.681473 254.070938,250.357452 
	C253.972061,257.964935 254.176651,257.967072 246.662308,257.967865 
	C235.178757,257.969086 223.694061,257.881714 212.212418,258.030182 
	C209.002289,258.071716 207.858109,257.098846 207.882263,253.781616 
	C208.014404,235.641785 208.035446,217.499725 207.875305,199.360367 
	C207.843094,195.712387 209.213852,194.867752 212.547562,194.955154 
	C222.670059,195.220551 220.885681,193.945526 221.042175,203.417343 
	C221.102661,207.077820 221.206726,210.748093 221.013550,214.399216 
	C220.825592,217.951828 222.402359,219.073059 225.765839,218.986115 
	C231.919601,218.827057 238.094772,219.198486 244.233505,218.855850 
	C248.680328,218.607651 250.154831,219.823746 250.261230,224.567642 
	C250.378204,229.782501 248.054626,230.270111 244.000015,230.023300 
	C240.186203,229.791183 236.347260,229.971588 232.023865,229.970459 
z"/>
<path fill="#5A5CD1" opacity="1.000000" stroke="none" 
	d="
M220.003128,142.972855 
	C221.689423,143.353104 223.371140,144.036118 225.062805,144.061737 
	C232.835983,144.179489 240.611908,144.113586 248.832611,144.113586 
	C248.832611,147.781143 248.832611,151.139999 248.832611,155.725647 
	C239.572845,155.725647 230.217194,155.725647 220.159760,156.145477 
	C219.302673,159.986084 219.030960,163.406281 219.013443,166.827759 
	C218.956146,178.020493 218.991730,178.020676 208.008759,177.519348 
	C208.007126,157.375931 208.009567,137.700348 208.452515,118.019669 
	C215.094559,117.711243 221.293213,117.276146 227.498413,117.140182 
	C234.244003,116.992386 241.000336,116.976898 247.742798,117.191864 
	C251.215561,117.302589 252.332138,119.480553 252.092880,122.971260 
	C251.860168,126.366722 249.761429,126.014847 247.593552,126.015930 
	C240.594666,126.019432 233.593201,125.917564 226.598892,126.096992 
	C225.045792,126.136833 223.517960,127.162239 221.978500,127.733856 
	C221.609207,127.836838 221.239929,127.939812 220.221558,128.283478 
	C219.716034,133.340408 219.859589,138.156631 220.003128,142.972855 
z"/>
<path fill="#BDD2F0" opacity="1.000000" stroke="none" 
	d="
M458.065308,240.828186 
	C457.491852,245.026596 459.038666,246.421448 462.793274,246.103165 
	C466.098907,245.822937 469.454041,246.181656 472.774963,246.013687 
	C477.637299,245.767746 476.896973,249.142151 476.964478,252.101715 
	C477.035767,255.228882 477.277802,258.087463 472.574463,258.027222 
	C458.593231,257.848114 444.607880,257.911407 430.625031,258.007050 
	C427.798492,258.026367 426.667542,257.002075 426.897614,254.211212 
	C427.033936,252.557495 426.506104,250.723862 427.058105,249.267151 
	C427.544983,247.982422 429.017700,246.355804 430.226990,246.198090 
	C433.501251,245.771072 436.885620,245.822357 440.191345,246.100006 
	C443.910034,246.412354 445.083405,245.106537 445.027191,241.339371 
	C444.823517,227.691772 445.223755,214.030945 444.810028,200.392868 
	C444.651093,195.154449 446.968323,194.755463 451.012604,194.947113 
	C454.810059,195.127060 458.460541,194.024551 458.220276,200.402618 
	C457.719330,213.701508 458.066620,227.032349 458.065308,240.828186 
z"/>
<path fill="#5C5ECE" opacity="1.000000" stroke="none" 
	d="
M276.152039,132.002594 
	C276.152039,143.798111 276.152039,155.094376 276.152039,167.074432 
	C285.043823,167.074432 293.581024,167.074432 302.438446,167.074432 
	C302.438446,171.313004 302.438446,174.868759 302.438446,178.723175 
	C289.181274,178.723175 276.105865,178.723175 262.709229,178.723175 
	C262.709229,157.931702 262.709229,137.215759 262.709229,116.266724 
	C267.097931,116.266724 271.206512,116.266724 276.152039,116.266724 
	C276.152039,121.347496 276.152039,126.425423 276.152039,132.002594 
z"/>
<path fill="#BED2F1" opacity="1.000000" stroke="none" 
	d="
M276.322449,257.334778 
	C263.009827,258.970551 263.009399,258.970551 263.009979,246.066635 
	C263.010651,230.748398 263.104889,215.429184 262.946167,200.112610 
	C262.907898,196.419434 263.616943,194.772079 267.846558,194.902115 
	C278.159912,195.219193 288.496338,195.222931 298.810150,194.912125 
	C304.323608,194.745956 302.868042,198.374039 302.978912,201.250824 
	C303.092712,204.203323 303.761810,207.393967 298.761627,207.044617 
	C293.459381,206.674179 288.094147,207.224396 282.788452,206.879532 
	C278.339447,206.590393 276.775635,207.829010 276.848816,212.599197 
	C277.075745,227.400330 276.754944,242.209869 276.322449,257.334778 
z"/>
<path fill="#5C5ECF" opacity="1.000000" stroke="none" 
	d="
M459.007385,127.936615 
	C458.966248,144.298706 458.925079,160.660797 458.363586,177.499664 
	C455.679321,177.987793 453.480194,177.754852 451.358704,178.060577 
	C446.734924,178.726868 445.812744,176.636017 445.897675,172.410538 
	C446.151855,159.764374 445.989197,147.109863 445.988983,134.458603 
	C445.988861,126.599503 445.988190,126.616447 438.191742,126.409019 
	C436.537567,126.364998 434.873077,125.937271 433.239471,126.053581 
	C429.736145,126.303024 427.758636,125.732010 427.823761,121.321693 
	C427.886780,117.054466 429.956085,116.943237 433.123749,116.967735 
	C446.031647,117.067558 458.941132,117.074020 471.849091,116.982872 
	C475.261230,116.958778 476.007202,118.651802 476.084045,121.645081 
	C476.163452,124.739090 475.356537,126.026566 471.932251,126.136658 
	C467.609161,126.275642 463.314392,127.296295 459.007385,127.936615 
z"/>
<path fill="#7473CC" opacity="1.000000" stroke="none" 
	d="
M569.076599,332.441956 
	C567.259216,332.571594 565.441895,332.814087 563.624451,332.814606 
	C487.965332,332.835968 412.306244,332.835693 336.647125,332.838104 
	C334.693329,332.838165 332.739532,332.838104 330.463562,332.838104 
	C330.463562,326.018097 330.463562,319.761810 330.463562,312.896362 
	C332.513733,312.786530 334.593414,312.578308 336.673157,312.577789 
	C406.166199,312.560028 475.659241,312.563599 545.152283,312.554199 
	C547.148682,312.553925 549.145020,312.446686 551.636353,312.259094 
	C552.131226,312.128845 552.235229,312.230896 552.059326,312.589722 
	C549.832520,313.290192 547.781860,313.928925 545.730591,313.930511 
	C478.089783,313.982361 410.448883,313.973114 342.808014,313.973022 
	C331.970734,313.972992 331.970734,313.973175 331.971375,324.608978 
	C331.971741,331.018219 331.971741,331.024567 338.526581,331.025024 
	C415.330627,331.030518 492.134674,331.033936 568.955933,331.272858 
	C569.029724,331.816742 569.064209,332.128143 569.076599,332.441956 
z"/>
<path fill="#7473CC" opacity="1.000000" stroke="none" 
	d="
M552.079285,312.077820 
	C551.993408,268.868622 551.947510,225.710464 551.929138,182.552322 
	C551.912659,143.725571 551.932251,104.898804 551.911072,66.072052 
	C551.909912,63.920242 551.680908,61.768551 551.321533,59.238701 
	C551.085022,58.860600 551.127808,58.785156 551.530518,58.857468 
	C552.612366,60.722301 553.872864,62.511669 553.882568,64.307823 
	C554.013794,88.444672 553.970642,112.582481 553.970642,136.720047 
	C553.970703,193.318481 553.987610,249.916946 553.897644,306.515228 
	C553.894653,308.421326 552.813721,310.325714 552.235229,312.230896 
	C552.235229,312.230896 552.131226,312.128845 552.079285,312.077820 
z"/>
<path fill="#6261B0" opacity="1.000000" stroke="none" 
	d="
M569.470703,332.542480 
	C569.064209,332.128143 569.029724,331.816742 569.307617,331.072083 
	C570.088562,329.115997 570.924927,327.595825 570.925598,326.075256 
	C570.967102,230.738068 570.940308,135.400848 570.942566,39.852001 
	C570.965271,39.640377 570.990784,39.215466 570.990784,39.215462 
	C571.337708,40.712528 571.987488,42.209442 571.988281,43.706684 
	C572.036011,138.529068 572.040894,233.351501 571.940674,328.173798 
	C571.939087,329.664276 570.586853,331.153290 569.470703,332.542480 
z"/>
<path fill="#5C5DBA" opacity="1.000000" stroke="none" 
	d="
M325.495148,127.075386 
	C327.916626,126.685081 330.796143,126.118332 333.687439,126.049889 
	C340.012939,125.900139 346.348206,125.873299 352.671844,126.058044 
	C355.826965,126.150223 357.180878,125.266541 357.084625,121.870071 
	C356.992737,118.628342 356.188080,116.809982 352.550903,116.982025 
	C343.935730,117.389549 335.315216,117.713966 326.693359,117.936813 
	C322.943878,118.033730 319.185974,117.742218 315.431580,117.732635 
	C312.660431,117.725555 311.932251,119.297928 311.947052,121.941818 
	C312.044098,139.262848 312.016479,156.584732 311.975616,173.906219 
	C311.969910,176.328812 312.171417,178.069016 315.364227,178.042023 
	C328.520966,177.930832 341.679230,178.011871 354.836700,177.960022 
	C355.789703,177.956268 356.740723,177.455078 358.060272,177.098053 
	C357.629730,177.674866 356.835999,178.911697 356.032776,178.917892 
	C341.066193,179.033539 326.098480,179.002777 310.771759,179.002777 
	C310.771759,158.014084 310.771759,137.314392 310.771759,116.302032 
	C326.504364,116.302032 342.083099,116.302032 358.102997,116.302032 
	C358.102997,119.641815 358.102997,123.005486 358.102997,127.124939 
	C347.430542,127.124939 336.694550,127.124939 325.495148,127.075386 
z"/>
<path fill="#6A69C8" opacity="1.000000" stroke="none" 
	d="
M570.531372,39.125313 
	C570.990784,39.215466 570.965271,39.640377 570.483215,39.833317 
	C492.772949,40.019730 415.544739,40.013195 338.316528,40.006893 
	C337.650787,40.006836 336.981750,40.053574 336.319824,40.004208 
	C333.059631,39.761089 331.861877,41.348423 331.959808,44.495255 
	C332.099518,48.985065 332.019226,53.481724 332.021362,58.200241 
	C332.009766,58.425022 331.991455,58.874813 331.991455,58.874817 
	C331.399445,58.256794 330.307739,57.650215 330.293274,57.018959 
	C330.160797,51.237061 330.215393,45.450874 330.215393,39.035156 
	C410.485199,39.035156 490.278534,39.035156 570.531372,39.125313 
z"/>
<path fill="#6363B2" opacity="1.000000" stroke="none" 
	d="
M193.011383,126.017372 
	C193.547272,124.137383 194.577057,122.211868 194.409729,120.396698 
	C194.326630,119.495239 192.071396,118.159462 190.754166,118.105247 
	C178.645706,117.606857 166.523087,117.452934 154.414444,116.957962 
	C150.256180,116.787979 148.895493,118.282143 148.939072,122.422798 
	C149.116058,139.242310 149.022919,156.064789 149.003235,172.886124 
	C149.000122,175.533249 148.987640,178.023972 152.702728,178.016052 
	C166.501984,177.986664 180.301331,178.004349 193.969986,178.004349 
	C196.324234,170.409088 195.342529,169.058044 188.053177,168.991760 
	C179.911545,168.917725 171.770721,168.753159 163.340179,168.334412 
	C173.840363,168.040833 184.629898,168.040833 195.756927,168.040833 
	C195.756927,171.613327 195.756927,175.007370 195.756927,178.714371 
	C179.992401,178.714371 164.273041,178.714371 148.264465,178.714371 
	C148.264465,158.011185 148.264465,137.424515 148.264465,116.407188 
	C163.875916,116.407188 179.582916,116.407188 195.998306,116.407188 
	C195.998306,119.248039 196.134827,122.187416 195.901428,125.097130 
	C195.843719,125.816490 194.584579,126.439468 193.442932,126.796356 
	C193.008163,126.485977 193.011383,126.017372 193.011383,126.017372 
z"/>
<path fill="#7473CC" opacity="1.000000" stroke="none" 
	d="
M332.454773,58.955914 
	C331.991455,58.874813 332.009766,58.425022 332.486267,58.207264 
	C403.580353,57.992062 474.197968,57.987816 544.815552,58.030235 
	C546.919739,58.031502 549.023743,58.522495 551.127808,58.785156 
	C551.127808,58.785156 551.085022,58.860600 551.064087,58.898544 
	C542.560059,58.982872 534.076904,59.069416 525.593811,59.069260 
	C461.368591,59.068073 397.143341,59.049892 332.454773,58.955914 
z"/>
<path fill="#6A6AB8" opacity="1.000000" stroke="none" 
	d="
M459.472107,127.884842 
	C463.314392,127.296295 467.609161,126.275642 471.932251,126.136658 
	C475.356537,126.026566 476.163452,124.739090 476.084045,121.645081 
	C476.007202,118.651802 475.261230,116.958778 471.849091,116.982872 
	C458.941132,117.074020 446.031647,117.067558 433.123749,116.967735 
	C429.956085,116.943237 427.886780,117.054466 427.823761,121.321693 
	C427.758636,125.732010 429.736145,126.303024 433.239471,126.053581 
	C434.873077,125.937271 436.537567,126.364998 438.191742,126.409019 
	C445.988190,126.616447 445.988861,126.599503 445.988983,134.458603 
	C445.989197,147.109863 446.151855,159.764374 445.897675,172.410538 
	C445.812744,176.636017 446.734924,178.726868 451.358704,178.060577 
	C453.480194,177.754852 455.679321,177.987793 458.289795,177.959000 
	C454.341278,178.452927 449.946136,178.964310 444.985474,179.541489 
	C444.985474,161.849075 444.985474,145.125458 444.985474,127.812286 
	C438.792633,127.812286 433.059418,127.812286 427.073669,127.812286 
	C427.073669,123.652817 427.073669,120.091736 427.073669,116.244034 
	C443.742554,116.244034 460.131439,116.244034 476.843140,116.244034 
	C476.843140,120.016151 476.843140,123.583839 476.843140,127.833076 
	C471.149658,127.833076 465.543243,127.833076 459.472107,127.884842 
z"/>
<path fill="#6A6AB8" opacity="1.000000" stroke="none" 
	d="
M222.442612,127.815659 
	C223.517960,127.162239 225.045792,126.136833 226.598892,126.096992 
	C233.593201,125.917564 240.594666,126.019432 247.593552,126.015930 
	C249.761429,126.014847 251.860168,126.366722 252.092880,122.971260 
	C252.332138,119.480553 251.215561,117.302589 247.742798,117.191864 
	C241.000336,116.976898 234.244003,116.992386 227.498413,117.140182 
	C221.293213,117.276146 215.094559,117.711243 208.328003,117.785812 
	C207.473740,117.362244 207.184494,117.167419 206.895248,116.972595 
	C207.589615,116.652344 208.282944,116.055267 208.978500,116.052658 
	C223.391418,115.998497 237.804581,116.011856 252.615646,116.011856 
	C252.615646,119.941467 252.615646,123.630775 252.615646,127.897446 
	C242.690338,127.897446 232.798538,127.897446 222.442612,127.815659 
z"/>
<path fill="#6363B2" opacity="1.000000" stroke="none" 
	d="
M109.500984,116.157646 
	C103.031700,116.502968 96.104897,116.875206 89.174614,116.958405 
	C86.361366,116.992165 84.934082,117.544960 84.955666,120.802612 
	C85.075905,138.949539 85.004471,157.097672 85.041855,175.245316 
	C85.043831,176.206299 85.439850,177.166458 85.833527,178.495514 
	C85.340126,178.223267 84.079514,177.585556 84.076180,176.941330 
	C83.972321,156.857590 83.991119,136.773239 83.991119,116.068352 
	C92.554718,116.068352 100.798393,116.068352 109.500984,116.157646 
z"/>
<path fill="#6364B9" opacity="1.000000" stroke="none" 
	d="
M186.580292,142.144928 
	C183.950165,142.808121 180.871109,143.720154 177.751465,143.891037 
	C173.179672,144.141449 168.566895,144.027115 163.998093,143.699158 
	C162.736893,143.608643 160.528900,142.206009 160.530396,141.408768 
	C160.539352,136.663239 161.068985,131.918701 161.841827,127.142128 
	C162.259888,131.879913 162.259888,136.649399 162.259888,142.062408 
	C170.260498,142.062408 178.186844,142.062408 186.580292,142.144928 
z"/>
<path fill="#6364B9" opacity="1.000000" stroke="none" 
	d="
M325.521301,152.140945 
	C327.250214,151.726700 329.433136,151.109436 331.631409,151.048843 
	C337.094421,150.898254 342.577637,150.770767 348.027100,151.082260 
	C351.792480,151.297485 352.654541,149.036118 352.852081,146.296356 
	C353.103516,142.809219 350.374664,143.032761 348.014404,143.013290 
	C340.390137,142.950394 332.765900,142.882782 325.065521,142.471878 
	C334.407684,142.126785 343.825958,142.126785 353.604675,142.126785 
	C353.604675,145.403488 353.604675,148.442245 353.604675,152.191299 
	C344.395172,152.191299 335.188751,152.191299 325.521301,152.140945 
z"/>
<path fill="#5C5DBA" opacity="1.000000" stroke="none" 
	d="
M206.789764,117.434105 
	C207.184494,117.167419 207.473740,117.362244 207.887497,117.790924 
	C208.009567,137.700348 208.007126,157.375931 208.003296,177.524811 
	C208.001892,177.998108 207.996475,178.003571 207.714447,178.004517 
	C207.244476,178.010773 207.056519,178.016083 206.868561,178.021408 
	C206.807129,157.979477 206.745712,137.937546 206.789764,117.434105 
z"/>
<path fill="#6364B9" opacity="1.000000" stroke="none" 
	d="
M163.494110,152.082367 
	C166.915390,151.664505 170.790298,151.242432 174.676682,151.029449 
	C177.492432,150.875137 180.323410,151.008591 183.147522,150.995102 
	C190.055710,150.962112 191.071899,149.589188 189.025482,142.602081 
	C189.720749,143.123383 190.991211,143.941345 191.155624,144.941193 
	C191.499374,147.031586 191.259766,149.217911 191.259766,152.167709 
	C182.007797,152.167709 172.980225,152.167709 163.494110,152.082367 
z"/>
<path fill="#5C5DBA" opacity="1.000000" stroke="none" 
	d="
M358.519409,169.589294 
	C353.218994,169.661133 348.010040,169.248230 342.792938,169.030151 
	C337.061096,168.790558 331.321716,168.730408 325.303467,168.284607 
	C335.129730,167.937088 345.238403,167.856186 355.346252,167.916031 
	C356.435760,167.922455 357.520416,168.745941 358.519409,169.589294 
z"/>
<path fill="#5C5DBA" opacity="1.000000" stroke="none" 
	d="
M208.007355,177.992645 
	C218.991730,178.020676 218.956146,178.020493 219.013443,166.827759 
	C219.030960,163.406281 219.302673,159.986084 219.784241,156.302216 
	C220.110489,163.494598 220.110489,170.950073 220.110489,178.982391 
	C216.149551,178.982391 212.541748,178.982391 208.467377,178.709488 
	C208.000809,178.436584 207.996475,178.003571 207.996475,178.003571 
	C207.996475,178.003571 208.001892,177.998108 208.007355,177.992645 
z"/>
<path fill="#5C5DBA" opacity="1.000000" stroke="none" 
	d="
M192.541580,126.011497 
	C193.011383,126.017372 193.008163,126.485977 193.011627,126.720253 
	C183.329239,127.004143 173.643387,127.053757 163.498688,127.022430 
	C166.257309,126.627686 169.470352,126.112778 172.693130,126.042458 
	C179.149857,125.901550 185.611923,126.003769 192.541580,126.011497 
z"/>
<path fill="#6A6AB8" opacity="1.000000" stroke="none" 
	d="
M220.079620,142.515060 
	C219.859589,138.156631 219.716034,133.340408 219.934601,128.307404 
	C220.249832,132.746155 220.202972,137.401718 220.079620,142.515060 
z"/>
<path fill="#6364B9" opacity="1.000000" stroke="none" 
	d="
M324.052063,140.525513 
	C324.059753,136.384460 324.144379,131.789673 324.625610,127.123840 
	C324.724457,131.392456 324.426727,135.732101 324.052063,140.525513 
z"/>
<path fill="#6A6AB8" opacity="1.000000" stroke="none" 
	d="
M207.714447,178.004517 
	C207.996475,178.003571 208.000809,178.436584 208.007416,178.652618 
	C207.658707,178.778671 207.303391,178.688705 206.908325,178.310074 
	C207.056519,178.016083 207.244476,178.010773 207.714447,178.004517 
z"/>
<path fill="#5D5FCF" opacity="1.000000" stroke="none" 
	d="
M475.016846,178.019943 
	C475.008362,178.030762 474.860779,178.072296 474.860779,178.072296 
	C474.860779,178.072296 475.037109,178.152481 475.042297,178.081665 
	C475.047485,178.010834 475.025330,178.009125 475.016846,178.019943 
z"/>
<path fill="#FBFDFE" opacity="1.000000" stroke="none" 
	d="
M119.971725,229.984192 
	C123.880142,233.287476 123.650154,237.255585 122.344055,241.131271 
	C120.953888,245.256454 117.352249,246.725601 113.328522,246.958633 
	C109.690262,247.169342 106.027473,246.924637 102.382828,247.067612 
	C99.690056,247.173279 98.946404,245.905075 99.012505,243.451782 
	C99.124191,239.307144 98.862640,235.144821 99.147652,231.016861 
	C99.239487,229.686630 100.666862,227.277588 101.296570,227.337097 
	C107.428696,227.916763 113.521187,228.915771 119.971725,229.984192 
z"/>
<path fill="#FBFBFE" opacity="1.000000" stroke="none" 
	d="
M110.343475,146.700470 
	C106.116356,146.772934 102.324959,146.772934 98.196106,146.772934 
	C98.196106,140.073425 98.196106,133.710312 98.196106,126.928276 
	C102.834854,126.928276 107.289192,126.710403 111.713844,126.979889 
	C118.175591,127.373444 121.677391,130.798508 121.874138,136.405472 
	C122.061958,141.758423 119.062233,144.985245 112.735565,146.236618 
	C112.083168,146.365662 111.431320,146.497467 110.343475,146.700470 
z"/>
<path fill="#F8F9FD" opacity="1.000000" stroke="none" 
	d="
M502.313965,135.324387 
	C503.312256,132.325058 504.171112,129.700684 505.029938,127.076324 
	C505.426117,127.060310 505.822266,127.044296 506.218445,127.028275 
	C509.189697,136.741531 512.160950,146.454788 515.302063,156.723511 
	C508.665253,156.723511 502.513763,156.723511 495.875366,156.723511 
	C498.007385,149.607651 500.090973,142.653503 502.313965,135.324387 
z"/>
<path fill="#FBFDFE" opacity="1.000000" stroke="none" 
	d="
M499.354309,230.682373 
	C498.006958,226.138275 496.808838,221.968689 495.454712,217.256317 
	C502.152283,217.256317 507.708282,217.256317 514.576721,217.256317 
	C511.539093,227.377701 508.657471,236.979340 505.775848,246.580994 
	C505.317291,246.626663 504.858734,246.672348 504.400177,246.718033 
	C502.767975,241.497635 501.135742,236.277252 499.354309,230.682373 
z"/>
<path fill="#5A5CD1" opacity="1.000000" stroke="none" 
	d="
M551.530518,58.857468 
	C549.023743,58.522495 546.919739,58.031502 544.815552,58.030235 
	C474.197968,57.987816 403.580353,57.992062 332.497864,57.982483 
	C332.019226,53.481724 332.099518,48.985065 331.959808,44.495255 
	C331.861877,41.348423 333.059631,39.761089 336.319824,40.004208 
	C336.981750,40.053574 337.650787,40.006836 338.316528,40.006893 
	C415.544739,40.013195 492.772949,40.019730 570.460510,40.044941 
	C570.940308,135.400848 570.967102,230.738068 570.925598,326.075256 
	C570.924927,327.595825 570.088562,329.115997 569.290405,330.837128 
	C492.134674,331.033936 415.330627,331.030518 338.526581,331.025024 
	C331.971741,331.024567 331.971741,331.018219 331.971375,324.608978 
	C331.970734,313.973175 331.970734,313.972992 342.808014,313.973022 
	C410.448883,313.973114 478.089783,313.982361 545.730591,313.930511 
	C547.781860,313.928925 549.832520,313.290192 552.059326,312.589722 
	C552.813721,310.325714 553.894653,308.421326 553.897644,306.515228 
	C553.987610,249.916946 553.970703,193.318481 553.970642,136.720047 
	C553.970642,112.582481 554.013794,88.444672 553.882568,64.307823 
	C553.872864,62.511669 552.612366,60.722301 551.530518,58.857468 
z"/>
</svg>